<svg width="213" height="52" viewBox="0 0 213 52" fill="none" xmlns="http://www.w3.org/2000/svg">
<path d="M38.332 26.71C38.332 27.4154 38.0713 28.0287 37.55 28.55C37.0287 29.0714 36.4153 29.332 35.71 29.332L7.374 29.332C6.66867 29.332 6.05533 29.0714 5.534 28.55C5.01267 28.0287 4.752 27.4154 4.752 26.71V24.87C4.752 24.1647 5.01267 23.5514 5.534 23.03C6.05533 22.5087 6.66867 22.248 7.374 22.248L35.71 22.248C36.4153 22.248 37.0287 22.5087 37.55 23.03C38.0713 23.5514 38.332 24.1647 38.332 24.87V26.71Z" fill="#5FA9EE"/>
<rect x="32" width="110" height="52" rx="6" fill="#5FA9EE"/>
<path d="M39.176 38C38.4707 38 37.8573 37.7393 37.336 37.218C36.8147 36.6967 36.554 36.0833 36.554 35.378V7.042C36.554 6.33667 36.8147 5.72333 37.336 5.202C37.8573 4.68067 38.4707 4.42 39.176 4.42H41.016C41.7213 4.42 42.3347 4.68067 42.856 5.202C43.3773 5.72333 43.638 6.33667 43.638 7.042V35.378C43.638 36.0833 43.3773 36.6967 42.856 37.218C42.3347 37.7393 41.7213 38 41.016 38H39.176Z" fill="white"/>
<path d="M53.9679 38C53.2625 38 52.6492 37.7393 52.1279 37.218C51.6065 36.6967 51.3459 36.0833 51.3459 35.378V16.702C51.3459 15.9967 51.6065 15.3833 52.1279 14.862C52.6492 14.3407 53.2625 14.08 53.9679 14.08H54.5659C55.3019 14.08 55.9152 14.3407 56.4059 14.862C56.9272 15.3527 57.2032 15.966 57.2339 16.702V17.024C57.2339 17.0547 57.2492 17.07 57.2799 17.07C57.3105 17.07 57.3412 17.0547 57.3719 17.024C59.4572 14.7547 61.8952 13.62 64.6859 13.62C67.4765 13.62 69.5005 14.4173 70.7579 16.012C72.0459 17.576 72.6899 20.198 72.6899 23.878V35.378C72.6899 36.0833 72.4292 36.6967 71.9079 37.218C71.3865 37.7393 70.7732 38 70.0679 38H69.2859C68.5805 38 67.9672 37.7393 67.4459 37.218C66.9552 36.6967 66.7099 36.0833 66.7099 35.378V24.338C66.7099 22.038 66.4032 20.474 65.7899 19.646C65.2072 18.7873 64.1492 18.358 62.6159 18.358C61.3585 18.358 60.1932 18.8947 59.1199 19.968C58.0465 21.0413 57.5099 22.1913 57.5099 23.418V35.378C57.5099 36.0833 57.2492 36.6967 56.7279 37.218C56.2065 37.7393 55.5932 38 54.8879 38H53.9679Z" fill="white"/>
<path d="M77.3671 48.074C76.6618 48.1047 76.0791 47.8747 75.6191 47.384C75.1285 46.924 74.8831 46.3567 74.8831 45.682C74.8831 45.038 75.1285 44.4707 75.6191 43.98C76.1098 43.4893 76.6925 43.2133 77.3671 43.152C79.4218 43.0293 80.7405 42.6 81.3231 41.864C81.9365 41.128 82.2431 39.6867 82.2431 37.54V16.702C82.2431 15.9967 82.5038 15.3833 83.0251 14.862C83.5465 14.3407 84.1598 14.08 84.8651 14.08H86.1071C86.8125 14.08 87.4105 14.3407 87.9011 14.862C88.4225 15.3833 88.6831 15.9967 88.6831 16.702V37.54C88.6831 41.4347 87.9165 44.118 86.3831 45.59C84.8805 47.062 81.8751 47.89 77.3671 48.074ZM86.1071 3.5C86.8125 3.5 87.4105 3.76067 87.9011 4.282C88.4225 4.80333 88.6831 5.41667 88.6831 6.122V6.398C88.6831 7.10333 88.4225 7.71667 87.9011 8.238C87.4105 8.75933 86.8125 9.02 86.1071 9.02H84.8651C84.1598 9.02 83.5465 8.75933 83.0251 8.238C82.5038 7.71667 82.2431 7.10333 82.2431 6.398V6.122C82.2431 5.41667 82.5038 4.80333 83.0251 4.282C83.5465 3.76067 84.1598 3.5 84.8651 3.5H86.1071Z" fill="white"/>
<path d="M106.155 17.898C104.591 17.898 103.379 18.3427 102.521 19.232C101.693 20.0907 101.171 21.486 100.957 23.418C100.957 23.6633 101.079 23.786 101.325 23.786H110.341C110.586 23.786 110.709 23.6633 110.709 23.418C110.586 19.738 109.068 17.898 106.155 17.898ZM107.305 38.46C103.287 38.46 100.19 37.4173 98.0125 35.332C95.8658 33.216 94.7925 30.1187 94.7925 26.04C94.7925 21.992 95.7585 18.91 97.6905 16.794C99.6225 14.678 102.413 13.62 106.063 13.62C112.871 13.62 116.367 17.484 116.551 25.212C116.581 25.948 116.321 26.5613 115.769 27.052C115.217 27.5427 114.573 27.788 113.837 27.788H101.279C101.003 27.788 100.895 27.926 100.957 28.202C101.171 30.2567 101.846 31.7593 102.981 32.71C104.146 33.63 105.833 34.09 108.041 34.09C109.421 34.09 110.954 33.86 112.641 33.4C113.193 33.2467 113.699 33.3387 114.159 33.676C114.649 34.0133 114.895 34.4733 114.895 35.056C114.895 35.7613 114.68 36.39 114.251 36.942C113.852 37.4633 113.315 37.7853 112.641 37.908C110.923 38.276 109.145 38.46 107.305 38.46Z" fill="white"/>
<path d="M132.221 38.46C128.418 38.46 125.49 37.4173 123.435 35.332C121.38 33.216 120.353 30.1187 120.353 26.04C120.353 22.0227 121.334 18.956 123.297 16.84C125.29 14.6933 128.112 13.62 131.761 13.62C133.386 13.62 134.95 13.7273 136.453 13.942C137.158 14.034 137.741 14.356 138.201 14.908C138.661 15.46 138.891 16.104 138.891 16.84C138.891 17.4533 138.646 17.944 138.155 18.312C137.695 18.68 137.158 18.8027 136.545 18.68C135.349 18.4347 134.015 18.312 132.543 18.312C130.611 18.312 129.17 18.9253 128.219 20.152C127.268 21.3787 126.793 23.3413 126.793 26.04C126.793 28.8 127.299 30.778 128.311 31.974C129.323 33.17 130.887 33.768 133.003 33.768C134.506 33.768 135.809 33.63 136.913 33.354C137.496 33.2007 138.017 33.308 138.477 33.676C138.968 34.044 139.213 34.5193 139.213 35.102C139.213 35.838 138.983 36.482 138.523 37.034C138.094 37.586 137.526 37.9233 136.821 38.046C135.257 38.322 133.724 38.46 132.221 38.46Z" fill="white"/>
<path d="M146.38 19.462C145.767 19.462 145.246 19.2473 144.816 18.818C144.387 18.358 144.172 17.8213 144.172 17.208C144.172 16.5947 144.387 16.0733 144.816 15.644C145.246 15.2147 145.767 15 146.38 15H148.588C148.864 15 149.002 14.862 149.002 14.586V8.882C149.002 8.17667 149.248 7.56333 149.738 7.042C150.26 6.52067 150.873 6.26 151.578 6.26H152.498C153.204 6.26 153.817 6.52067 154.338 7.042C154.86 7.56333 155.12 8.17667 155.12 8.882V14.586C155.12 14.862 155.258 15 155.534 15H160.778C161.392 15 161.913 15.2147 162.342 15.644C162.802 16.0733 163.032 16.5947 163.032 17.208C163.032 17.8213 162.802 18.358 162.342 18.818C161.913 19.2473 161.392 19.462 160.778 19.462H155.534C155.258 19.462 155.12 19.5847 155.12 19.83V29.122C155.12 31.1153 155.335 32.4033 155.764 32.986C156.194 33.5687 157.083 33.86 158.432 33.86C159.168 33.86 159.72 33.8293 160.088 33.768C160.702 33.7067 161.238 33.8447 161.698 34.182C162.158 34.5193 162.388 34.9793 162.388 35.562C162.388 36.2367 162.158 36.85 161.698 37.402C161.269 37.9233 160.732 38.2147 160.088 38.276C158.739 38.3987 157.727 38.46 157.052 38.46C154.078 38.46 151.992 37.8313 150.796 36.574C149.6 35.286 149.002 33.0013 149.002 29.72V19.83C149.002 19.5847 148.864 19.462 148.588 19.462H146.38Z" fill="#5FA9EE"/>
<path d="M183.027 20.014C182.138 18.726 180.789 18.082 178.979 18.082C177.17 18.082 175.805 18.726 174.885 20.014C173.996 21.2713 173.551 23.28 173.551 26.04C173.551 28.8 173.996 30.824 174.885 32.112C175.805 33.3693 177.17 33.998 178.979 33.998C180.789 33.998 182.138 33.3693 183.027 32.112C183.947 30.824 184.407 28.8 184.407 26.04C184.407 23.28 183.947 21.2713 183.027 20.014ZM187.535 35.24C185.511 37.3867 182.659 38.46 178.979 38.46C175.299 38.46 172.432 37.3867 170.377 35.24C168.353 33.0627 167.341 29.996 167.341 26.04C167.341 22.084 168.353 19.0327 170.377 16.886C172.432 14.7087 175.299 13.62 178.979 13.62C182.659 13.62 185.511 14.7087 187.535 16.886C189.59 19.0327 190.617 22.084 190.617 26.04C190.617 29.996 189.59 33.0627 187.535 35.24Z" fill="#5FA9EE"/>
<path d="M197.987 38C197.282 38 196.669 37.7393 196.147 37.218C195.626 36.6967 195.365 36.0833 195.365 35.378V16.702C195.365 15.9967 195.626 15.3833 196.147 14.862C196.669 14.3407 197.282 14.08 197.987 14.08H198.907C199.613 14.08 200.226 14.3407 200.747 14.862C201.269 15.3833 201.529 15.9967 201.529 16.702V18.634C201.529 18.6647 201.545 18.68 201.575 18.68C201.637 18.68 201.667 18.6647 201.667 18.634C202.557 17.4073 203.722 16.4107 205.163 15.644C206.605 14.8467 208.184 14.356 209.901 14.172C210.545 14.1107 211.097 14.3253 211.557 14.816C212.017 15.276 212.247 15.828 212.247 16.472C212.247 17.116 212.017 17.668 211.557 18.128C211.097 18.588 210.545 18.8487 209.901 18.91C204.473 19.3393 201.759 22.0993 201.759 27.19V35.378C201.759 36.0833 201.499 36.6967 200.977 37.218C200.456 37.7393 199.843 38 199.137 38H197.987Z" fill="#5FA9EE"/>
<path d="M2.622 42.58C1.91667 42.58 1.30333 42.3193 0.782 41.798C0.260666 41.2767 0 40.6633 0 39.958V11.622C0 10.9167 0.260666 10.3033 0.782 9.782C1.30333 9.26067 1.91667 9 2.622 9H4.462C5.16733 9 5.78067 9.26067 6.302 9.782C6.82333 10.3033 7.084 10.9167 7.084 11.622V39.958C7.084 40.6633 6.82333 41.2767 6.302 41.798C5.78067 42.3193 5.16733 42.58 4.462 42.58H2.622Z" fill="#5FA9EE"/>
</svg>
